# xmcd
#
# Track frame offsets:
#	150
#	11470
#	23021
#	34291
#	44665
#	55755
#	64507
#	75656
#	86325
#	96421
#	107892
#	120481
#	134606
#	148479
#	159190
#	170344
#	180246
#	190669
#	199235
#	210830
#	221603
#	233984
#	246024
#	254893
#
# Disc length: 3547 seconds
#
# Revision: 0
# Processed by: cddbd v1.5.2PL0 Copyright (c) Steve Scherf et al.
# Submitted via: dBpowerAMP V4.0
#
DISCID=4e0dd918
DTITLE=Patsy Cline - The Debut Album
DYEAR=2008
DGENRE=Country
TTITLE0=That Wonderful Someone
TTITLE1=In Care Of The Blues
TTITLE2=Hungry For Love
TTITLE3=Too Many Secrets
TTITLE4=Don´t Ever Leave Me Again
TTITLE5=Ain´t No Wheels On This Ship
TTITLE6=I Can´t Forget You
TTITLE7=I Don´t Wanta
TTITLE8=Three Cigarettes In An Ashtray
TTITLE9=Walkin´ After Midnight
TTITLE10=Fingerprints
TTITLE11=Then You´ll Know
TTITLE12=A Church A Courtroom And Then Goodbye
TTITLE13=Honky Tonk  Merry Go Round
TTITLE14=Hidin´ Out
TTITLE15=Turn The Cards Slowly
TTITLE16=I Love You Honey
TTITLE17=Come On In
TTITLE18=I´ve Loved And Lost Again
TTITLE19=Stop Look And Listen
TTITLE20=A Poor Man´s Roses
TTITLE21=Today Tomorrow And Forever
TTITLE22=Try Again
TTITLE23=A Stranger in My Arms
EXTD=hib
EXTT0=
EXTT1=
EXTT2=
EXTT3=
EXTT4=
EXTT5=
EXTT6=
EXTT7=
EXTT8=
EXTT9=
EXTT10=
EXTT11=
EXTT12=
EXTT13=
EXTT14=
EXTT15=
EXTT16=
EXTT17=
EXTT18=
EXTT19=
EXTT20=
EXTT21=
EXTT22=
EXTT23=
PLAYORDER=
